:FULLY-SPECIFIED
:FORCE-ALL-JOINTS-BE-3DOF
:DEGREES
306
root 9.1264 15.4642 -23.7273 14.7054 61.4238 18.5985
lfemur -15.4661 16.6108 -18.5071
ltibia 50.9524 -0 0
lfoot -18.0606 -24.8872 -0.259122
ltoes 57.1095 -0 0
rfemur -51.0991 -13.2884 26.7179
rtibia 56.4216 -0 0
rfoot 2.69525 -3.464 0.357484
rtoes 13.5218 -0 0
lowerback 8.51995 -3.06907 -6.91977
upperback 4.60615 -4.45359 -4.07485
thorax 0.265647 -2.23068 -0.0584263
lowerneck -3.86769 -11.6205 -2.57628
upperneck -1.67623 -15.4186 9.60453
head 1.20515 -7.66824 3.05759
lclavicle -5.88154e-14 -2.57002e-15 -5.64796e-32
lhumerus -44.3537 -46.0355 103.487
lradius 59.7261 -0 0
lwrist 19.0613 0 0
lhand 17.6012 12.6398 0.0727404
lfingers 7.12502 -0 0
lthumb 42.2863 37.0676 0.0464839
rclavicle -5.88154e-14 -2.57002e-15 -5.64796e-32
rhumerus -35.0488 35.6632 -76.7955
rradius 73.5914 -0 0
rwrist -2.45094 0 0
rhand -13.7146 -14.2441 -0.329541
rfingers 7.12502 -0 0
rthumb 12.3847 -43.4941 -0.248156
307
root 9.06772 15.491 -23.6837 13.8262 59.4214 17.1923
lfemur -15.58 17.3113 -18.2629
ltibia 50.3824 -0 0
lfoot -18.6024 -23.7833 -0.248633
ltoes 57.0702 -0 0
rfemur -52.6256 -14.385 26.9888
rtibia 57.119 -0 0
rfoot 3.11223 -1.47913 0.342967
rtoes 9.03289 -0 0
lowerback 8.72859 -2.83078 -6.81653
upperback 4.62968 -4.15108 -4.08542
thorax 0.150233 -2.07628 -0.133307
lowerneck -4.01779 -11.54 -2.05792
upperneck -2.32699 -15.2801 9.7301
head 0.975758 -7.61264 3.03399
lclavicle -5.41864e-14 -2.5419e-15 -5.41974e-32
lhumerus -44.9031 -46.8791 103.909
lradius 59.6054 -0 0
lwrist 18.9849 0 0
lhand 17.1954 12.2265 0.0697996
lfingers 7.12502 -0 0
lthumb 41.9064 36.7855 0.0446049
rclavicle -5.41864e-14 -2.5419e-15 -5.41974e-32
rhumerus -30.0319 34.7767 -72.9969
rradius 73.237 -0 0
rwrist -5.03793 0 0
rhand -11.9987 -14.6882 -0.316174
rfingers 7.12502 -0 0
rthumb 14.0383 -43.8411 -0.238094
308
root 9.01066 15.517 -23.6413 13.1058 57.4649 15.9545
lfemur -15.6882 17.9931 -18.0259
ltibia 49.8281 -0 0
lfoot -19.1291 -22.7099 -0.228421
ltoes 57.032 -0 0
rfemur -54.1228 -15.4443 27.2825
rtibia 57.7972 -0 0
rfoot 3.51703 0.451041 0.315005
rtoes 4.66732 -0 0
lowerback 8.93188 -2.5994 -6.71532
upperback 4.6525 -3.85688 -4.09558
thorax 0.0378091 -1.92627 -0.20642
lowerneck -4.163 -11.4605 -1.55417
upperneck -2.95913 -15.144 9.85057
head 0.752677 -7.55866 3.01082
lclavicle -4.96845e-14 -2.51455e-15 -4.9799e-32
lhumerus -45.4548 -47.6969 104.338
lradius 59.488 -0 0
lwrist 18.9106 0 0
lhand 16.8007 11.8246 0.0641321
lfingers 7.12502 -0 0
lthumb 41.5371 36.5111 0.0409837
rclavicle -4.96845e-14 -2.51455e-15 -4.9799e-32
rhumerus -25.2883 33.661 -69.449
rradius 72.8923 -0 0
rwrist -7.55382 0 0
rhand -10.33 -15.1196 -0.290425
rfingers 7.12502 -0 0
rthumb 15.6463 -44.1781 -0.21871
309
root 8.95628 15.5418 -23.6009 12.5229 55.5936 14.8738
lfemur -15.7889 18.643 -17.8004
ltibia 49.3 -0 0
lfoot -19.6306 -21.6872 -0.199984
ltoes 56.9955 -0 0
rfemur -55.562 -16.4465 27.5905
rtibia 58.4435 -0 0
rfoot 3.90168 2.29008 0.275689
rtoes 0.507349 -0 0
lowerback 9.12593 -2.37926 -6.61813
upperback 4.67419 -3.57654 -4.10514
thorax -0.0694891 -1.78345 -0.276358
lowerneck -4.30066 -11.3836 -1.07447
upperneck -3.56084 -15.0131 9.96384
head 0.54011 -7.50731 2.98855
lclavicle -4.53947e-14 -2.48849e-15 -4.36084e-32
lhumerus -45.9972 -48.4734 104.763
lradius 59.3762 -0 0
lwrist 18.8398 0 0
lhand 16.4247 11.4418 0.0561571
lfingers 7.12502 -0 0
lthumb 41.1852 36.2497 0.0358875
rclavicle -4.53947e-14 -2.48849e-15 -4.36084e-32
rhumerus -20.9133 32.3789 -66.2264
rradius 72.5638 -0 0
rwrist -9.95122 0 0
rhand -8.7402 -15.5297 -0.254211
rfingers 7.12502 -0 0
rthumb 17.1784 -44.4987 -0.191446
